<svg xmlns="http://www.w3.org/2000/svg" version="1.1" xmlns:xlink="http://www.w3.org/1999/xlink" width="512" height="512" x="0" y="0" viewBox="0 0 512 512" style="enable-background:new 0 0 512 512" xml:space="preserve" class=""><g><rect width="400" height="400" x="73.671" y="63.423" fill="#fff356" opacity="0.12549019607843137" rx="200" data-original="#6556ff20" class=""></rect><path fill="#ffffff" d="M258.352 227.075c-10.264-5.7-21.9-3.677-37.171-1.027a150.027 150.027 0 0 0-28.8 8.029l36.8 35.328a173.831 173.831 0 0 0 31.953 57.61c30.161 35.785 77.9 61.962 87.39 52.527 12.761-12.686-52.5-80.918-74.839-133.409-1.639-3.868-5.632-13.675-15.333-19.058z" opacity="1" data-original="#ffffff" class=""></path><path fill="#090817" d="M342.47 382.481c-.278 0-.56-.006-.849-.019-17.185-.757-55.582-24.355-81.244-54.8a174.177 174.177 0 0 1-32.061-57.705L191.691 234.8a1 1 0 0 1 .33-1.653 151.626 151.626 0 0 1 28.989-8.083c15.227-2.642 27.255-4.728 37.828 1.138 9.785 5.43 13.9 15.133 15.661 19.276l.112.266c9.985 23.457 28.572 50.068 44.971 73.546 23.117 33.093 36.916 53.743 29.653 60.963-1.491 1.479-3.764 2.228-6.765 2.228zM194.213 234.447l35.667 34.237a.985.985 0 0 1 .257.407 172.231 172.231 0 0 0 31.769 57.28c25.339 30.064 63.031 53.355 79.8 54.093 2.852.129 4.9-.424 6.116-1.631 6.44-6.4-11.2-31.659-29.882-58.4-16.456-23.558-35.106-50.259-45.172-73.908l-.114-.268c-1.678-3.953-5.606-13.212-14.79-18.308-9.956-5.525-21.1-3.592-36.515-.916a149.547 149.547 0 0 0-27.136 7.414z" opacity="1" data-original="#090817"></path><path fill="#ffffff" d="M151.733 232.513s-51.426-6.5-71.879 16.985-41.525 213.925-41.525 213.925h67.556z" opacity="1" data-original="#ffffff" class=""></path><path fill="#080717" d="M261.141 227.23c-12.705-10.692-45.22-.8-45.22-.8l16.4 61.541s3.951 21.15 22.08 39.511 44.529 33.936 44.529 33.936l30.078-37.7s-55.161-85.797-67.867-96.488zM229.466 91.807s27.957 13.836 6.574 68.741l-26.5-65.487z" opacity="1" data-original="#080717" class=""></path><path fill="#ffffff" d="M422.767 48.577H274.642a7.473 7.473 0 0 0-7.473 7.473v112.026a7.473 7.473 0 0 0 7.473 7.473h14.3l-11.486 29.107a1.217 1.217 0 0 0 1.968 1.332l32.25-30.439h111.093a7.473 7.473 0 0 0 7.473-7.473V56.05a7.473 7.473 0 0 0-7.473-7.473z" opacity="1" data-original="#ffffff" class=""></path><path fill="#090817" d="M278.594 207.332a2.22 2.22 0 0 1-1.25-.393 2.179 2.179 0 0 1-.821-2.65l10.947-27.74h-12.827a8.483 8.483 0 0 1-8.474-8.473V56.05a8.483 8.483 0 0 1 8.474-8.473h148.124a8.483 8.483 0 0 1 8.473 8.473v112.026a8.483 8.483 0 0 1-8.473 8.473h-110.7l-31.961 30.166a2.194 2.194 0 0 1-1.512.617zm-3.951-157.755a6.481 6.481 0 0 0-6.474 6.473v112.026a6.48 6.48 0 0 0 6.474 6.473h14.3a1 1 0 0 1 .931 1.368l-11.485 29.106a.217.217 0 0 0 .35.238l32.25-30.439a1 1 0 0 1 .687-.273h111.091a6.48 6.48 0 0 0 6.473-6.473V56.05a6.481 6.481 0 0 0-6.473-6.473z" opacity="1" data-original="#090817"></path><path fill="#ffffff" d="M257.633 231.723c-8.861-7.642-17.99-5.752-50.254-2.917a11.163 11.163 0 0 1-12.138-11.118v-28.2h-38.117v31.422a11.584 11.584 0 0 1-11.182 11.571c-26.914.934-35.946 1.009-44.705 9.471-14.6 14.109-12.815 36.415-11.156 64.147 2.1 35.1 4.414 85.974 4.859 151.537l160.524.31A1484.492 1484.492 0 0 1 265.071 303c3.701-31.869 7.868-58.076-7.438-71.277z" opacity="1" data-original="#ffffff" class=""></path><path fill="#090817" d="m255.464 458.944-160.524-.31a1 1 0 0 1-1-.993c-.357-52.612-1.992-103.579-4.857-151.484l-.14-2.316c-1.636-27.14-2.928-48.577 11.6-62.611 8.789-8.49 18.14-8.812 43.132-9.674l2.233-.077a10.541 10.541 0 0 0 10.217-10.57v-31.423a1 1 0 0 1 1-1h38.117a1 1 0 0 1 1 1v28.2a10.164 10.164 0 0 0 11.051 10.122c3.564-.313 6.846-.615 9.877-.893 24.619-2.265 32.914-3.027 41.117 4.049 14.8 12.762 11.991 36.483 8.44 66.515q-.33 2.784-.663 5.632a1496.877 1496.877 0 0 0-9.6 154.843 1 1 0 0 1-1 .99zm-159.531-2.308 158.543.306a1497.722 1497.722 0 0 1 9.6-154.059q.332-2.85.662-5.636c3.483-29.443 6.233-52.7-7.76-64.767-7.559-6.52-15.639-5.777-39.627-3.572-3.033.279-6.318.581-9.886.894a12.162 12.162 0 0 1-13.225-12.114v-27.2h-36.116v30.423a12.532 12.532 0 0 1-12.147 12.569l-2.234.077c-25.115.866-33.576 1.157-41.811 9.114-13.866 13.394-12.6 34.425-10.992 61.052l.139 2.317c2.85 47.637 4.483 98.301 4.854 150.596z" opacity="1" data-original="#090817"></path><path fill="#080717" d="M145.942 232.479s36.58 25.064 65.2-5.045c0 0 43.958-10.844 53.72 7.414s3.674 228.575 3.674 228.575H88.989s-11.086-194.513 0-214.5 56.953-16.444 56.953-16.444z" opacity="1" data-original="#080717" class=""></path><path fill="#080717" d="M140.9 231.687s-51.889-6.106-67.47 30.279-24.386 119.087-24.386 119.087l61.025 12.263z" opacity="1" data-original="#080717" class=""></path><path fill="#080717" d="M38.331 464.423a1.081 1.081 0 0 1-.139-.009 1 1 0 0 1-.854-1.128L49.424 376a1 1 0 1 1 1.981.274L39.32 463.56a1 1 0 0 1-.989.863z" opacity="1" data-original="#080717" class=""></path><path fill="#ffffff" d="M240.722 137.361h-.081a69.635 69.635 0 0 0-.077-1.377l-.148-.154a64.367 64.367 0 0 0-128.549 1.572 13.841 13.841 0 1 0 4.778 27.092c.073.177.136.358.21.534 6.4 21.231 20.872 45.378 53.643 48.646 42.232 4.212 60.59-23.364 67.15-48.972a13.846 13.846 0 1 0 3.074-27.345z" opacity="1" data-original="#ffffff" class=""></path><path fill="#090817" d="M179.014 215.115q-4.124 0-8.615-.442c-33.567-3.348-48.1-28.393-54.388-48.979a14.674 14.674 0 0 1-3.249.366 14.841 14.841 0 0 1-1.854-29.567 65.367 65.367 0 0 1 130.483-1.066 1 1 0 0 1 .17.493c.011.154.021.31.03.466a14.85 14.85 0 0 1-.869 29.674 14.655 14.655 0 0 1-2.344-.193c-5.15 19.319-19.563 49.247-59.364 49.248zM116.645 163.5a1 1 0 0 1 .925.619l.207.527a.919.919 0 0 1 .036.1c6.047 20.071 20.113 44.68 52.784 47.939 45.582 4.55 60.968-28.263 66.082-48.225a1 1 0 0 1 1.19-.727 12.846 12.846 0 1 0 2.872-25.37h-.1a1 1 0 0 1-1-.953 62.622 62.622 0 0 0-.055-1.018 1 1 0 0 1-.169-.5 63.367 63.367 0 0 0-126.552 1.549 1 1 0 0 1-.935.958 12.841 12.841 0 1 0 4.434 25.134 1 1 0 0 1 .281-.033z" opacity="1" data-original="#090817"></path><path fill="#ffffff" d="M84.968 383.331a1 1 0 0 1-1-.992l-.906-101.8a1 1 0 0 1 .991-1.009h.009a1 1 0 0 1 1 .991l.906 101.8a1 1 0 0 1-.991 1.009z" opacity="1" data-original="#ffffff" class=""></path><path fill="#080717" d="M161.449 140.218a1 1 0 0 1-.564-.175 22.75 22.75 0 0 0-23.625-.024 1 1 0 0 1-.992-1.737 25.185 25.185 0 0 1 25.749.112 1 1 0 0 1-.568 1.824z" opacity="1" data-original="#080717" class=""></path><circle cx="151.687" cy="154.112" r="6.212" fill="#080717" opacity="1" data-original="#080717" class=""></circle><path fill="#080717" d="M171.721 169.034c-1.028 0-1.856-.053-2.242-.083a1 1 0 0 1 .153-1.994c3.342.255 7.378-.138 8.063-1.221.631-1.224-1.878-9.045-4.62-15.578a1 1 0 1 1 1.843-.775c1.858 4.425 6.011 14.979 4.467 17.422-1.196 1.895-5.066 2.229-7.664 2.229z" opacity="1" data-original="#080717" class=""></path><ellipse cx="142.713" cy="169.947" fill="#ffd426" rx="5.602" ry="8.582" transform="rotate(-89.48 142.77 169.945)" opacity="1" data-original="#6556ff" class=""></ellipse><path fill="#080717" d="M165.152 196.7c-3.755 0-6.81-3.73-6.81-8.315s3.055-8.315 6.81-8.315 6.811 3.73 6.811 8.315-3.055 8.315-6.811 8.315zm0-14.63c-2.652 0-4.81 2.833-4.81 6.315s2.158 6.315 4.81 6.315 4.811-2.833 4.811-6.315-2.158-6.317-4.811-6.317zM104.956 139.218s5-2.326 7.2 0 2.44 6.743 5.81 6.743 2.789-20.221 6.043-29.285 12.75-17.9 12.75-17.9 20.718 13.247 29.55 8.367 0-13.248 0-13.248 18.129 15.339 27.426 11.621 2.097-11.616 2.097-11.616 20.488 16.4 34.764 11.684 14.973-23.869 8.465-29.978-24.248 0-24.248 0-45-34.332-80.682 0c0 0-17.09 1.792-24.992 12.948s-4.183 50.664-4.183 50.664z" opacity="1" data-original="#080717" class=""></path><path fill="#ffffff" d="M268.533 339.016a1 1 0 0 1-.992-.88l-6.153-50.822a1 1 0 1 1 1.986-.24l6.153 50.822a1 1 0 0 1-.994 1.12z" opacity="1" data-original="#ffffff" class=""></path><circle cx="347.609" cy="109.622" r="47.362" fill="#ffffff" opacity="1" data-original="#ffffff" class=""></circle><path fill="#090817" d="M347.609 158.985a49.363 49.363 0 1 1 49.363-49.362 49.418 49.418 0 0 1-49.363 49.362zm0-94.725a45.363 45.363 0 1 0 45.363 45.363 45.414 45.414 0 0 0-45.363-45.363z" opacity="1" data-original="#090817"></path><g fill="#080717"><circle cx="347.609" cy="94.886" r="18.37" fill="#080717" opacity="1" data-original="#080717" class=""></circle><path d="M370.851 129.508a23.242 23.242 0 0 0-23.242-23.242 23.242 23.242 0 0 0-23.242 23.242v13.221h46.484z" fill="#080717" opacity="1" data-original="#080717" class=""></path></g><path fill="#ffd426" d="M388.751 133.7a2.481 2.481 0 0 1-1.122-.268L304.54 91.6a2.5 2.5 0 1 1 2.248-4.466l83.089 41.835a2.5 2.5 0 0 1-1.126 4.734z" opacity="1" data-original="#6556ff" class=""></path><g fill="#fff"><path d="M114.382 121.394a1 1 0 0 1-1-.954c-.03-.648-.582-15.985 11.578-24.569a1 1 0 1 1 1.154 1.634c-11.251 7.941-10.741 22.7-10.734 22.845a1 1 0 0 1-.955 1.043zM159.035 102.951c-6.144 0-15.632-9.3-16.772-10.437a1 1 0 1 1 1.414-1.414c3.117 3.116 12.107 10.934 16.213 9.741a2.028 2.028 0 0 0 1.336-1.167c1.383-2.926-.957-9.742-1.976-12.122a1 1 0 0 1 1.551-1.168c.171.139 17.221 13.913 24.9 9.44a1 1 0 1 1 1.008 1.728c-6.874 4.01-18.978-3.62-24.412-7.53 1 3.129 2.056 7.726.743 10.5a4.056 4.056 0 0 1-2.586 2.234 5.031 5.031 0 0 1-1.419.195zM222.676 97.076a34.282 34.282 0 0 1-11.361-2.206 63.737 63.737 0 0 1-13.6-6.891 1 1 0 1 1 1.142-1.641c.23.16 23.167 15.888 34.521 4.755a1 1 0 0 1 1.4 1.428 16.649 16.649 0 0 1-12.102 4.555z" fill="#ffffff" opacity="1" data-original="#ffffff" class=""></path></g><path fill="#ffffff" d="M246.726 256.089c4.931 12.886 51.507 132.112 96.032 126.016 1.535-.21 9.487-1.3 14.224-7.241 20.83-26.128-53.266-104.95-83.165-135.385z" opacity="1" data-original="#ffffff" class=""></path><path fill="#090817" d="M339.4 383.333c-18.217 0-38.5-19.016-60.366-56.615-17.225-29.622-29.8-61.276-33.238-70.271a1 1 0 0 1 .412-1.21l27.09-16.61a1 1 0 0 1 1.235.152c25.568 26.024 45.99 49.38 60.7 69.416 24.234 33.01 31.816 55.65 22.536 67.292-4.337 5.44-11.177 7.1-14.869 7.608a25.7 25.7 0 0 1-3.5.238zm-91.442-126.826c6.427 16.649 52.019 130.442 94.665 124.607 3.4-.466 9.675-1.978 13.577-6.874 14-17.563-15.307-64.959-82.54-133.492z" opacity="1" data-original="#090817"></path><path fill="#080717" d="m222.192 189.322 9.3-3.264 11.066 31.53-9.299 3.263z" opacity="1" data-original="#080717" class=""></path><rect width="22.036" height="69.506" x="235.963" y="209.7" fill="#ffffff" rx="6.229" transform="rotate(-19.34 247.35 244.754)" opacity="1" data-original="#ffffff" class=""></rect><path fill="#090817" d="M251.923 280.182a7.241 7.241 0 0 1-6.826-4.833l-18.909-53.825a7.236 7.236 0 0 1 4.424-9.215l9.037-3.175a7.228 7.228 0 0 1 9.216 4.424l18.908 53.824a7.226 7.226 0 0 1-4.424 9.216l-9.037 3.174a7.185 7.185 0 0 1-2.389.41zm-9.883-69.457a5.2 5.2 0 0 0-1.728.3l-9.037 3.174a5.235 5.235 0 0 0-3.2 6.666l18.908 53.825a5.234 5.234 0 0 0 6.666 3.2l9.038-3.175a5.23 5.23 0 0 0 3.2-6.666l-18.908-53.824a5.238 5.238 0 0 0-4.939-3.5z" opacity="1" data-original="#090817"></path><circle cx="217.505" cy="160.548" r="38.733" fill="#ffffff" opacity="1" data-original="#ffffff" class=""></circle><path fill="#090817" d="M217.541 200.284a39.734 39.734 0 1 1 37.451-52.9 39.741 39.741 0 0 1-37.451 52.905zm-.07-77.472a37.735 37.735 0 1 0 35.634 25.23 37.8 37.8 0 0 0-35.634-25.23z" opacity="1" data-original="#090817"></path><circle cx="217.505" cy="160.548" r="33.743" fill="#ffffff" opacity="1" data-original="#ffffff" class=""></circle><path fill="#090817" d="M217.479 195.309a34.753 34.753 0 1 1 32.8-46.276 34.789 34.789 0 0 1-32.8 46.276zm.051-67.52A32.753 32.753 0 1 0 248.4 149.7a32.8 32.8 0 0 0-30.867-21.907z" opacity="1" data-original="#090817"></path><path fill="#ffffff" d="M278.672 244.453s-17.345-18.639-24.1-22.192-26.18-.707-27.779 2.828 2.9 8.494 2.9 8.494-3.055 5.578 2.889 8.522c0 0-3.818 5.268 3 8.212 0 0-2.185 6.124 4.8 8.562s19.066-.5 23.094 3.214 3.7 6.972 3.7 6.972" opacity="1" data-original="#ffffff" class=""></path><path fill="#090817" d="M267.17 270.065h-.1a1 1 0 0 1-.9-1.1c.008-.1.171-2.854-3.387-6.137-1.943-1.795-6.641-1.812-11.185-1.829-4.073-.016-8.285-.031-11.561-1.176a8.351 8.351 0 0 1-5.091-4.15 7.838 7.838 0 0 1-.545-4.8 6.664 6.664 0 0 1-3.707-4.055 6.311 6.311 0 0 1 .513-4.329 6.759 6.759 0 0 1-3.014-3.707 7.676 7.676 0 0 1 .319-5.034c-1.167-1.449-4.172-5.669-2.635-9.069.494-1.092 1.924-2.031 4.374-2.873 6.163-2.118 19.192-3.369 24.782-.429 6.828 3.592 23.654 21.631 24.367 22.4a1 1 0 1 1-1.465 1.362c-.171-.185-17.3-18.554-23.833-21.988-4.6-2.418-16.6-1.719-23.2.549-2.084.716-3.028 1.421-3.2 1.806-1.089 2.41 1.6 6.166 2.725 7.41a1 1 0 0 1 .136 1.152 5.972 5.972 0 0 0-.455 4.132 5.259 5.259 0 0 0 2.911 3.013 1 1 0 0 1 .365 1.483 4.816 4.816 0 0 0-.755 3.609c.349 1.249 1.474 2.292 3.342 3.1a1 1 0 0 1 .545 1.254c-.072.208-1.733 5.215 4.184 7.283 2.959 1.033 7 1.048 10.908 1.063 5.153.019 10.02.037 12.535 2.359 4.345 4.011 4.036 7.653 4.02 7.807a1 1 0 0 1-.993.894z" opacity="1" data-original="#090817"></path><path fill="#080717" d="M202.189 139.646a1 1 0 0 1-.565-1.825 24.019 24.019 0 0 1 13.363-4.152h.04a24.067 24.067 0 0 1 12.957 3.852 1 1 0 1 1-1.092 1.676 22.026 22.026 0 0 0-11.865-3.528h-.036a22.013 22.013 0 0 0-12.238 3.8 1 1 0 0 1-.564.177z" opacity="1" data-original="#080717" class=""></path><circle cx="213.306" cy="155.403" r="7.213" fill="#080717" opacity="1" data-original="#080717" class=""></circle><ellipse cx="219.502" cy="174.563" fill="#ffd426" rx="6.504" ry="9.964" transform="rotate(-89.48 219.572 174.547)" opacity="1" data-original="#6556ff" class=""></ellipse><path fill="#080717" d="M230.306 233.653a1 1 0 0 1-.228-1.973c.327-.078 8.093-1.888 12.792-1.417a1 1 0 1 1-.2 1.99c-4.363-.446-12.053 1.355-12.13 1.373a.971.971 0 0 1-.234.027zM232.575 243.1a1 1 0 0 1-.252-1.967 35.892 35.892 0 0 1 12.215-.8 1 1 0 0 1-.261 1.983 34.479 34.479 0 0 0-11.449.751 1 1 0 0 1-.253.033zM246.726 251.317a1 1 0 0 1-.357-.066c-4.859-1.856-10.415-.007-10.471.012a1 1 0 0 1-.647-1.892c.253-.087 6.284-2.109 11.832.012a1 1 0 0 1-.357 1.934z" opacity="1" data-original="#080717" class=""></path><circle cx="127.907" cy="302.148" r="23.826" fill="#ffd426" opacity="1" data-original="#6556ff" class=""></circle></g></svg>